<svg xmlns="http://www.w3.org/2000/svg" width="256" height="256" viewBox="0 0 100 100"><rect width="100" height="100" rx="20" fill="#7d6ee7"></rect><path d="M36.05 32.81L36.05 46.85L52.07 46.85Q52.25 47.39 52.47 48.11Q52.70 48.83 52.70 49.64L52.70 49.64Q52.70 52.79 49.55 52.79L49.55 52.79L36.05 52.79L36.05 70.16Q35.33 70.43 34.66 70.61Q33.98 70.79 32.99 70.79L32.99 70.79Q31.19 70.79 30.34 69.98Q29.48 69.17 29.48 67.19L29.48 67.19L29.48 52.79L13.19 52.79Q12.92 52.16 12.74 51.48Q12.56 50.81 12.56 49.91L12.56 49.91Q12.56 46.85 15.71 46.85L15.71 46.85L29.48 46.85L29.48 29.84Q30.20 29.57 30.96 29.39Q31.73 29.21 32.81 29.21L32.81 29.21Q34.52 29.21 35.28 30.02Q36.05 30.83 36.05 32.81L36.05 32.81ZM84.29 56.21L62.78 56.21Q62.51 55.58 62.33 54.90Q62.15 54.23 62.15 53.33L62.15 53.33Q62.15 50.27 65.30 50.27L65.30 50.27L86.81 50.27Q86.99 50.81 87.22 51.53Q87.44 52.25 87.44 53.06L87.44 53.06Q87.44 56.21 84.29 56.21L84.29 56.21Z" fill="#fff"></path></svg>